<svg width="750" height="176" viewBox="0 0 750 176" fill="none" xmlns="http://www.w3.org/2000/svg">
<path d="M168.125 0H7.0052C3.13633 0 0 3.13632 0 7.00519V168.125C0 171.994 3.13633 175.13 7.0052 175.13H168.125C171.994 175.13 175.13 171.994 175.13 168.125V7.00519C175.13 3.13632 171.994 0 168.125 0Z" fill="#5638DC"/>
<path d="M56.9252 123.624L33.5062 49.302C33.4333 49.1248 33.3968 48.9633 33.3968 48.8174C33.3968 48.3796 33.7459 48.1608 34.4442 48.1608H42.089C43.0062 48.1608 43.5742 48.5412 43.7931 49.302L63.6945 113.446L81.1728 51.5689C81.3917 50.6517 81.9284 49.8544 82.783 49.1769C83.6481 48.4995 84.6121 48.1608 85.6752 48.1608H89.568C90.6311 48.1608 91.5951 48.4995 92.4602 49.1769C93.3252 49.8544 93.8672 50.6517 94.086 51.5689L111.455 113.446L131.341 49.302C131.56 48.5724 132.128 48.192 133.045 48.1608H140.69C141.607 48.1608 141.919 48.5412 141.628 49.302L118.318 123.624C117.588 125.854 115.884 126.969 113.206 126.969H109.86C108.505 126.969 107.375 126.631 106.468 125.953C105.571 125.276 105.014 124.499 104.795 123.624L87.5981 62.3403L70.4482 123.624C70.2293 124.53 69.6717 125.317 68.7754 125.984C67.8791 126.641 66.7535 126.969 65.3986 126.969H62.0374C59.4005 126.969 57.6965 125.854 56.9252 123.624Z" fill="white"/>
<path d="M241.478 122.126L219.017 50.8447C218.947 50.6748 218.912 50.5198 218.912 50.3799C218.912 49.9601 219.247 49.7501 219.917 49.7501H227.249C228.129 49.7501 228.674 50.115 228.883 50.8447L247.971 112.365L264.734 53.0188C264.944 52.1392 265.459 51.3745 266.279 50.7247C267.108 50.075 268.033 49.7501 269.052 49.7501H272.786C273.806 49.7501 274.73 50.075 275.56 50.7247C276.389 51.3745 276.909 52.1392 277.119 53.0188L293.778 112.365L312.85 50.8447C313.06 50.145 313.605 49.7801 314.484 49.7501H321.816C322.696 49.7501 322.996 50.115 322.716 50.8447L300.36 122.126C299.66 124.265 298.026 125.335 295.457 125.335H292.248C290.949 125.335 289.864 125.01 288.994 124.36C288.135 123.711 287.6 122.966 287.39 122.126L270.897 63.3497L254.448 122.126C254.238 122.996 253.704 123.751 252.844 124.39C251.984 125.02 250.905 125.335 249.605 125.335H246.381C243.852 125.335 242.218 124.265 241.478 122.126ZM359.001 126.969C350.585 126.969 343.802 124.325 338.655 119.037C333.507 113.75 330.933 106.193 330.933 96.3665C330.933 86.5504 333.507 79.0284 338.655 73.8005C343.802 68.5826 350.585 65.9736 359.001 65.9736C367.418 65.9736 374.2 68.5826 379.348 73.8005C384.496 79.0284 387.07 86.5504 387.07 96.3665C387.07 106.193 384.496 113.75 379.348 119.037C374.2 124.325 367.418 126.969 359.001 126.969ZM359.001 73.5156C353.544 73.5156 349.115 75.4249 345.717 79.2433C342.328 83.0518 340.634 88.7495 340.634 96.3365C340.634 103.933 342.328 109.671 345.717 113.55C349.115 117.438 353.544 119.382 359.001 119.382C364.469 119.382 368.897 117.438 372.286 113.55C375.675 109.671 377.369 103.933 377.369 96.3365C377.369 88.7495 375.675 83.0518 372.286 79.2433C368.897 75.4249 364.469 73.5156 359.001 73.5156ZM404.358 124.285V68.6726C404.358 67.9329 404.713 67.563 405.423 67.563H411.375C412.075 67.563 412.46 67.9329 412.53 68.6726L413.535 77.8339L414.374 76.6344C414.764 76.1346 415.654 75.2199 417.043 73.8905C418.433 72.551 419.977 71.3965 421.676 70.4269C423.386 69.4672 425.635 68.5726 428.424 67.7429C431.223 66.9233 434.166 66.5134 437.255 66.5134H441.573C442.313 66.5134 442.683 66.8633 442.683 67.563V74.0404C442.683 74.7801 442.313 75.15 441.573 75.15H438.365C434.846 75.15 431.612 75.5998 428.664 76.4994C425.715 77.3891 423.361 78.4686 421.601 79.7381C418.053 82.3371 415.749 84.6562 414.689 86.6954L414.059 88.0598V124.285C414.059 124.985 413.71 125.335 413.01 125.335H405.423C404.713 125.335 404.358 124.985 404.358 124.285ZM455.128 124.285V50.8447C455.128 50.145 455.478 49.7801 456.178 49.7501H463.78C464.479 49.7501 464.829 50.115 464.829 50.8447V92.3931H470.257C476.165 92.3931 480.838 89.7041 484.276 84.3263L494.082 68.6726C494.572 67.9629 495.117 67.593 495.717 67.563H504.038C505.128 67.563 505.378 68.0028 504.788 68.8825L494.502 85.3759C490.774 91.3535 486.275 94.7821 481.008 95.6618C486.495 96.4714 491.363 100.25 495.612 106.997L506.317 124.015C506.527 124.335 506.622 124.635 506.602 124.915C506.582 125.195 506.223 125.335 505.523 125.335H497.246C496.686 125.335 496.142 124.985 495.612 124.285L485.326 108.047C481.887 102.629 477.214 99.9401 471.306 99.98H464.829V124.285C464.829 124.985 464.479 125.335 463.78 125.335H456.178C455.478 125.335 455.128 124.985 455.128 124.285ZM519.542 124.285V71.8813C519.542 64.6742 521.701 58.9215 526.02 54.6232C530.348 50.3149 536.465 48.1608 544.372 48.1608C550.13 48.1608 554.823 49.0204 558.452 50.7397C559.151 51.0996 559.501 51.5594 559.501 52.1192V57.4421C559.501 58.3217 559.151 58.6016 558.452 58.2817C554.863 56.5624 550.54 55.7027 545.482 55.7027C534.686 55.7027 529.288 61.0956 529.288 71.8813V75.6748H551.269C551.979 75.6748 552.349 76.0296 552.379 76.7393V82.1672C552.379 82.8669 552.009 83.2168 551.269 83.2168H529.288V124.285C529.288 124.985 528.923 125.335 528.194 125.335H520.652C519.912 125.335 519.542 124.985 519.542 124.285ZM570.312 124.285V50.8447C570.312 50.115 570.662 49.7501 571.361 49.7501H578.948C579.648 49.7501 579.998 50.115 579.998 50.8447V124.285C579.998 124.985 579.648 125.335 578.948 125.335H571.361C570.662 125.335 570.312 124.985 570.312 124.285ZM625.37 126.969C616.953 126.969 610.171 124.325 605.023 119.037C599.875 113.75 597.301 106.193 597.301 96.3665C597.301 86.5504 599.875 79.0284 605.023 73.8005C610.171 68.5826 616.953 65.9736 625.37 65.9736C633.786 65.9736 640.569 68.5826 645.717 73.8005C650.865 79.0284 653.439 86.5504 653.439 96.3665C653.439 106.193 650.865 113.75 645.717 119.037C640.569 124.325 633.786 126.969 625.37 126.969ZM625.37 73.5156C619.902 73.5156 615.474 75.4249 612.085 79.2433C608.687 83.0518 606.987 88.7495 606.987 96.3365C606.987 103.933 608.687 109.671 612.085 113.55C615.474 117.438 619.902 119.382 625.37 119.382C630.828 119.382 635.256 117.438 638.655 113.55C642.043 109.671 643.738 103.933 643.738 96.3365C643.738 88.7495 642.043 83.0518 638.655 79.2433C635.256 75.4249 630.828 73.5156 625.37 73.5156ZM680.113 122.126L662.18 68.6726C662.11 68.5326 662.075 68.3927 662.075 68.2527C662.075 67.7929 662.41 67.563 663.08 67.563H670.412C671.291 67.563 671.836 67.9329 672.046 68.6726L686.59 112.365L700.085 70.8317C700.825 68.6526 702.264 67.563 704.403 67.563H707.672C709.821 67.563 711.265 68.6526 712.005 70.8317L725.5 112.365L740.044 68.6726C740.254 67.9329 740.799 67.563 741.678 67.563H749.01C749.67 67.563 750 67.7929 750 68.2527C750 68.3927 749.95 68.5326 749.85 68.6726L731.932 122.126C731.502 123.246 730.998 124.06 730.418 124.57C729.838 125.08 728.918 125.335 727.659 125.335H723.865C721.616 125.335 720.172 124.265 719.532 122.126L706.038 80.5328L692.543 122.126C691.913 124.265 690.474 125.335 688.225 125.335H684.431C683.162 125.335 682.237 125.08 681.657 124.57C681.078 124.06 680.563 123.246 680.113 122.126Z" fill="#5638DC"/>
</svg>
