<svg xmlns="http://www.w3.org/2000/svg" version="1.1" xmlns:xlink="http://www.w3.org/1999/xlink" xmlns:svgjs="http://svgjs.dev/svgjs" width="100%" height="100%" viewBox="0 0 1000 600"><rect width="1000" height="600" x="0" y="0" fill="#ffffff"/><g><rect width="333.3333333333333" height="333.3333333333333" rx="13.333333333333334" ry="13.333333333333334" y="260.14079850671413" fill="hsl(251 70% 54%)" transform="matrix(0.5253898993113941,0,0,0.5253898993113941,0,75.75968220856228)" x="237.91854858398438"/><path d="M346.26704000937093 495.43967850671794L301.6925506857937 353.97965030626Q301.4842586796088 353.4737982912394 301.4842586796088 353.05721427886954L301.4842586796088 353.05721427886954Q301.4842586796088 351.8074622417599 303.4779107388075 351.8074622417599L303.4779107388075 351.8074622417599L318.0285951708697 351.8074622417599Q320.6471232486233 351.8074622417599 321.2719992671781 353.97965030626L321.2719992671781 353.97965030626L359.1513883919537 476.06852193151855L392.418597379777 358.29427043437664Q393.0434733983318 355.67574235662306 395.483465470784 353.74160229919147Q397.9532135441197 351.8074622417599 400.9883256342431 351.8074622417599L400.9883256342431 351.8074622417599L408.39756985425026 351.8074622417599Q411.4326819443737 351.8074622417599 413.90243001770943 353.74160229919147Q416.37217809104516 355.67574235662306 416.99705410959996 358.29427043437664L416.99705410959996 358.29427043437664L450.05597109123835 476.06852193151855L487.9056042151303 353.97965030626Q488.5304802336851 351.89673024441055 491.1490083114387 351.8074622417599L491.1490083114387 351.8074622417599L505.6996927435009 351.8074622417599Q508.3182208212545 351.8074622417599 507.48505279651476 353.97965030626L507.48505279651476 353.97965030626L463.11885547912243 495.43967850671794Q461.03593541727304 501.80746269580044 453.3886431901974 501.80746269580044L453.3886431901974 501.80746269580044L447.0208590011149 501.80746269580044Q443.1525788862517 501.80746269580044 440.56380680938173 499.87332263836885Q438.00479073339534 497.93918258093726 437.37991471484054 495.43967850671794L437.37991471484054 495.43967850671794L404.64831374292135 378.79615504315143L372.0059807736528 495.43967850671794Q371.381104755098 498.0284505835879 368.82208867911163 499.932834640136Q366.26307260312524 501.80746269580044 362.39479248826206 501.80746269580044L362.39479248826206 501.80746269580044L355.997252298296 501.80746269580044Q348.46898407475464 501.80746269580044 346.26704000937093 495.43967850671794L346.26704000937093 495.43967850671794Z " fill="#ffffff" transform="matrix(0.5253898993113941,0,0,0.5253898993113941,0,75.75968220856228)"/><path d="M697.5361229606 492.5894221568046L654.784982525093 356.91590971995555Q654.5852108408151 356.4307499152802 654.5852108408151 356.03120654672404L654.5852108408151 356.03120654672404Q654.5852108408151 354.83257644105566 656.4973112474765 354.83257644105566L656.4973112474765 354.83257644105566L670.4527903349017 354.83257644105566Q672.9642057943975 354.83257644105566 673.5635208472316 356.91590971995555L673.5635208472316 356.91590971995555L709.8934285738005 474.010655518944L741.7998204342123 361.05403746571557Q742.3991354870466 358.5426220062198 744.7393180743038 356.68759922363773Q747.108039473601 354.83257644105566 750.0189983016529 354.83257644105566L750.0189983016529 354.83257644105566L757.1251624995442 354.83257644105566Q760.0361213275961 354.83257644105566 762.4048427268932 356.68759922363773Q764.7735641261903 358.5426220062198 765.3728791790246 361.05403746571557L765.3728791790246 361.05403746571557L797.0794993551582 474.010655518944L833.3808682696873 356.91590971995555Q833.9801833225216 354.9181928771748 836.4915987820174 354.83257644105566L836.4915987820174 354.83257644105566L850.4470778694425 354.83257644105566Q852.9584933289383 354.83257644105566 852.159406591826 356.91590971995555L852.159406591826 356.91590971995555L809.6080378405971 492.5894221568046Q807.6103209978163 498.6967279333055 800.2758463036072 498.6967279333055L800.2758463036072 498.6967279333055L794.1685405271063 498.6967279333055Q790.4584949619422 498.6967279333055 787.975618314486 496.84170515072344Q785.5212804790698 494.9866823681414 784.9219654262357 492.5894221568046L784.9219654262357 492.5894221568046L753.5292721825389 380.7172789610855L722.2221953749615 492.5894221568046Q721.6228803221272 495.0722988042605 719.168542486711 496.8987827748029Q716.7142046512947 498.6967279333055 713.0041590861306 498.6967279333055L713.0041590861306 498.6967279333055L706.8683144975898 498.6967279333055Q699.6479950515395 498.6967279333055 697.5361229606 492.5894221568046L697.5361229606 492.5894221568046ZM921.2233317279585 501.8074584456355Q897.1936519905108 501.8074584456355 882.4961637900527 486.71042687662134Q867.7986755895948 471.6133953076072 867.7986755895948 443.5597430725583Q867.7986755895948 415.5346296495491 882.4961637900527 400.6088309527733Q897.1936519905108 385.71157106803724 921.2233317279585 385.71157106803724Q945.2530114654063 385.71157106803724 959.9504996658644 400.6088309527733Q974.6479878663223 415.5346296495491 974.6479878663223 443.5597430725583Q974.6479878663223 471.6133953076072 959.9504996658644 486.71042687662134Q945.2530114654063 501.8074584456355 921.2233317279585 501.8074584456355ZM921.2233317279585 400.0665935240186Q905.6411403542692 400.0665935240186 895.937944260763 410.9684197231932Q886.2632869792964 421.8417071103282 886.2632869792964 443.5026654484788Q886.2632869792964 465.19216259866926 895.937944260763 476.26522167008227Q905.6411403542692 487.366819553535 921.2233317279585 487.366819553535Q936.8340619136878 487.366819553535 946.5087191951542 476.26522167008227Q956.1833764766208 465.19216259866926 956.1833764766208 443.5026654484788Q956.1833764766208 421.8417071103282 946.5087191951542 410.9684197231932Q936.8340619136878 400.0665935240186 921.2233317279585 400.0665935240186ZM1007.5532381481245 496.69901109052483L1007.5532381481245 496.69901109052483L1007.5532381481245 390.8485572351876Q1007.5532381481245 388.73668514424804 1009.5794938029447 388.73668514424804L1009.5794938029447 388.73668514424804L1020.9094021827153 388.73668514424804Q1022.907119025496 388.73668514424804 1023.1068907097741 390.8485572351876L1023.1068907097741 390.8485572351876L1025.0189911164357 408.28577139145915L1026.6171645906602 406.0026664282812Q1027.7301782602094 404.575725826295 1031.697073133731 400.78006382501167Q1035.6639680072526 396.9558630116886 1040.5155660540058 394.1875982438354Q1045.3957029127987 391.44787228802187 1053.358031471882 389.07915088872477Q1061.3488988430045 386.73896830146737 1070.1673917632793 386.73896830146737L1070.1673917632793 386.73896830146737L1078.3865696307198 386.73896830146737Q1080.4984417216597 386.73896830146737 1080.4984417216597 388.73668514424804L1080.4984417216597 388.73668514424804L1080.4984417216597 401.06545194540894Q1080.4984417216597 403.1773240363485 1078.3865696307198 403.1773240363485L1078.3865696307198 403.1773240363485L1072.2792638542192 403.1773240363485Q1062.233602016236 403.1773240363485 1053.8146524645176 405.7458171199237Q1045.3957029127987 408.28577139145915 1040.3728719938072 411.91020052050413L1040.3728719938072 411.91020052050413Q1030.2415937197052 419.3302916508324 1027.2164796434945 425.1522093069362L1027.2164796434945 425.1522093069362L1026.017849537826 427.74924120255105L1026.017849537826 496.69901109052483Q1026.017849537826 498.6967279333055 1024.0201326950455 498.6967279333055L1024.0201326950455 498.6967279333055L1009.5794938029447 498.6967279333055Q1007.5532381481245 498.6967279333055 1007.5532381481245 496.69901109052483ZM1104.1856557146307 496.69901109052483L1104.1856557146307 496.69901109052483L1104.1856557146307 356.91590971995555Q1104.1856557146307 354.9181928771748 1106.1833725574115 354.83257644105566L1106.1833725574115 354.83257644105566L1120.6525502615514 354.83257644105566Q1122.6502671043322 354.83257644105566 1122.6502671043322 356.91590971995555L1122.6502671043322 356.91590971995555L1122.6502671043322 435.9969578820314L1132.9813170627126 435.9969578820314Q1149.8477549781896 435.9969578820314 1159.6651063198547 420.64307700465974L1159.6651063198547 420.64307700465974L1178.3294893938341 390.8485572351876Q1179.7278911837807 388.8223015803672 1181.4402199061642 388.73668514424804L1181.4402199061642 388.73668514424804L1197.279260588211 388.73668514424804Q1200.389991100541 388.73668514424804 1198.7062011901976 391.24810060374375L1198.7062011901976 391.24810060374375L1179.1285761309464 422.6407938474404Q1168.4835992401295 439.7070034471955 1153.4436452951945 442.2184189066913L1153.4436452951945 442.2184189066913Q1169.1114531050034 444.5300626819089 1181.2404482218863 463.79376080872277L1181.2404482218863 463.79376080872277L1201.6171600182493 496.1853124738098Q1202.2164750710836 497.09855445908096 1202.1593974470038 497.8976411961932Q1202.1023198229245 498.6967279333055 1200.1046029801437 498.6967279333055L1200.1046029801437 498.6967279333055L1184.3511787342159 498.6967279333055Q1182.7530052599914 498.6967279333055 1181.2404482218863 496.69901109052483L1181.2404482218863 496.69901109052483L1161.662823162635 465.7914776515035Q1151.84547182097 450.32344152597295 1134.979033905493 450.43759677413186L1134.979033905493 450.43759677413186L1122.6502671043322 450.43759677413186L1122.6502671043322 496.69901109052483Q1122.6502671043322 498.6967279333055 1120.6525502615514 498.6967279333055L1120.6525502615514 498.6967279333055L1106.1833725574115 498.6967279333055Q1104.1856557146307 498.6967279333055 1104.1856557146307 496.69901109052483ZM1226.7883922372857 496.69901109052483L1226.7883922372857 496.69901109052483L1226.7883922372857 396.9558630116886Q1226.7883922372857 376.37937953104745 1239.117159038447 364.107690353966Q1251.4744646516474 351.80746236484487 1274.0486649750692 351.80746236484487L1274.0486649750692 351.80746236484487Q1290.4870207099507 351.80746236484487 1300.8466094803707 356.71613803567743L1300.8466094803707 356.71613803567743Q1302.844326323151 357.74353526910755 1302.844326323151 359.34170874333205L1302.844326323151 359.34170874333205L1302.844326323151 369.47298701743415Q1302.844326323151 371.9844024769299 1300.8466094803707 371.07116049165876L1300.8466094803707 371.07116049165876Q1290.6011759581093 366.16248482082614 1276.160537066009 366.16248482082614L1276.160537066009 366.16248482082614Q1245.3386200631066 366.16248482082614 1245.3386200631066 396.9558630116886L1245.3386200631066 396.9558630116886L1245.3386200631066 404.1761824577389L1287.1765185133427 404.1761824577389Q1289.2027741681632 404.1761824577389 1289.288390604282 406.20243811255926L1289.288390604282 406.20243811255926L1289.288390604282 416.5334880709394Q1289.288390604282 418.53120491372016 1287.1765185133427 418.53120491372016L1287.1765185133427 418.53120491372016L1245.3386200631066 418.53120491372016L1245.3386200631066 496.69901109052483Q1245.3386200631066 498.6967279333055 1243.2552867842069 498.6967279333055L1243.2552867842069 498.6967279333055L1228.9002643282256 498.6967279333055Q1226.7883922372857 498.6967279333055 1226.7883922372857 496.69901109052483ZM1323.4208098037925 496.69901109052483L1323.4208098037925 496.69901109052483L1323.4208098037925 356.91590971995555Q1323.4208098037925 354.83257644105566 1325.418526646573 354.83257644105566L1325.418526646573 354.83257644105566L1339.8591655386736 354.83257644105566Q1341.8568823814544 354.83257644105566 1341.8568823814544 356.91590971995555L1341.8568823814544 356.91590971995555L1341.8568823814544 496.69901109052483Q1341.8568823814544 498.6967279333055 1339.8591655386736 498.6967279333055L1339.8591655386736 498.6967279333055L1325.418526646573 498.6967279333055Q1323.4208098037925 498.6967279333055 1323.4208098037925 496.69901109052483ZM1428.2153276136596 501.8074584456355Q1404.185647876212 501.8074584456355 1389.4881596757536 486.71042687662134Q1374.7906714752958 471.6133953076072 1374.7906714752958 443.5597430725583Q1374.7906714752958 415.5346296495491 1389.4881596757536 400.6088309527733Q1404.185647876212 385.71157106803724 1428.2153276136596 385.71157106803724Q1452.2450073511077 385.71157106803724 1466.9424955515656 400.6088309527733Q1481.6399837520235 415.5346296495491 1481.6399837520235 443.5597430725583Q1481.6399837520235 471.6133953076072 1466.9424955515656 486.71042687662134Q1452.2450073511077 501.8074584456355 1428.2153276136596 501.8074584456355ZM1428.2153276136596 400.0665935240186Q1412.6045974279305 400.0665935240186 1402.929940146464 410.9684197231932Q1393.2267440529577 421.8417071103282 1393.2267440529577 443.5026654484788Q1393.2267440529577 465.19216259866926 1402.929940146464 476.26522167008227Q1412.6045974279305 487.366819553535 1428.2153276136596 487.366819553535Q1443.7975189873491 487.366819553535 1453.5007150808556 476.26522167008227Q1463.175372362322 465.19216259866926 1463.175372362322 443.5026654484788Q1463.175372362322 421.8417071103282 1453.5007150808556 410.9684197231932Q1443.7975189873491 400.0665935240186 1428.2153276136596 400.0665935240186ZM1532.4105303706929 492.5894221568046L1498.2781111711824 390.8485572351876Q1498.0783394869045 390.4490138666315 1498.0783394869045 390.0494704980753L1498.0783394869045 390.0494704980753Q1498.0783394869045 388.73668514424804 1499.990439893566 388.73668514424804L1499.990439893566 388.73668514424804L1513.9459189809913 388.73668514424804Q1516.457334440487 388.73668514424804 1517.0566494933214 390.8485572351876L1517.0566494933214 390.8485572351876L1544.739297171854 474.010655518944L1570.4242280076055 394.95814616890794Q1572.5361000985454 388.73668514424804 1578.643405875046 388.73668514424804L1578.643405875046 388.73668514424804L1584.8648668997062 388.73668514424804Q1591.000711488247 388.73668514424804 1593.1125835791863 394.95814616890794L1593.1125835791863 394.95814616890794L1618.7975144149382 474.010655518944L1646.4801620934709 390.8485572351876Q1647.0794771463047 388.73668514424804 1649.590892605801 388.73668514424804L1649.590892605801 388.73668514424804L1663.5463716932259 388.73668514424804Q1665.4299332878477 388.73668514424804 1665.4299332878477 390.0494704980753L1665.4299332878477 390.0494704980753Q1665.4299332878477 390.4490138666315 1665.1445451674504 390.8485572351876L1665.1445451674504 390.8485572351876L1631.04066477998 492.5894221568046Q1629.8134958622718 495.7857691052536 1628.1582447639676 497.2412485192796Q1626.5029936656638 498.6967279333055 1622.9071033486584 498.6967279333055L1622.9071033486584 498.6967279333055L1615.6867839026086 498.6967279333055Q1609.2655511936705 498.6967279333055 1607.439067223128 492.5894221568046L1607.439067223128 492.5894221568046L1581.754136387376 413.4227575586095L1556.0692055516242 492.5894221568046Q1554.2712603931218 498.6967279333055 1547.8500276841837 498.6967279333055L1547.8500276841837 498.6967279333055L1540.6297082381334 498.6967279333055Q1537.0052791090884 498.6967279333055 1535.3500280107846 497.2412485192796Q1533.6947769124804 495.7857691052536 1532.4105303706929 492.5894221568046L1532.4105303706929 492.5894221568046Z " fill="hsl(251 70% 54%)" transform="matrix(0.5253898993113941,0,0,0.5253898993113941,0,75.75968220856228)"/></g></svg>