<svg width="176" height="176" viewBox="0 0 176 176" fill="none" xmlns="http://www.w3.org/2000/svg">
<path d="M168.125 0H7.0052C3.13633 0 0 3.13632 0 7.00519V168.125C0 171.994 3.13633 175.13 7.0052 175.13H168.125C171.994 175.13 175.13 171.994 175.13 168.125V7.00519C175.13 3.13632 171.994 0 168.125 0Z" fill="#5638DC"/>
<path d="M56.9252 123.624L33.5062 49.302C33.4333 49.1248 33.3968 48.9633 33.3968 48.8173C33.3968 48.3796 33.7459 48.1607 34.4442 48.1607H42.089C43.0062 48.1607 43.5742 48.5411 43.7931 49.302L63.6945 113.446L81.1728 51.5688C81.3917 50.6517 81.9284 49.8544 82.783 49.1769C83.6481 48.4995 84.6121 48.1607 85.6752 48.1607H89.568C90.6311 48.1607 91.5951 48.4995 92.4602 49.1769C93.3252 49.8544 93.8672 50.6517 94.086 51.5688L111.455 113.446L131.341 49.302C131.56 48.5724 132.128 48.192 133.045 48.1607H140.69C141.607 48.1607 141.919 48.5411 141.628 49.302L118.318 123.624C117.588 125.854 115.884 126.969 113.206 126.969H109.86C108.505 126.969 107.375 126.63 106.468 125.953C105.571 125.276 105.014 124.499 104.795 123.624L87.5981 62.3403L70.4482 123.624C70.2293 124.53 69.6717 125.317 68.7754 125.984C67.8791 126.641 66.7535 126.969 65.3986 126.969H62.0374C59.4005 126.969 57.6965 125.854 56.9252 123.624Z" fill="white"/>
</svg>
